<svg width="218" height="53" viewBox="0 0 218 53" fill="none" xmlns="http://www.w3.org/2000/svg">
<path d="M127.9 0.0143108C127.184 -0.0759951 126.484 0.266589 126.115 0.886561C126.048 0.967561 125.978 1.05231 125.902 1.13706L125.82 1.22931L125.776 1.34406C125.014 3.28768 125.025 5.44955 125.807 7.38531C125.845 7.47409 125.893 7.55816 125.95 7.63581C126.26 8.10796 126.764 8.4187 127.325 8.48481C127.383 8.49006 127.441 8.49381 127.499 8.49381C127.992 8.48737 128.462 8.28718 128.809 7.93656C129.328 7.43644 129.671 6.78054 129.784 6.06831C129.993 4.60705 129.915 3.11894 129.554 1.68756C129.422 0.830985 128.755 0.156131 127.9 0.0143108Z" fill="white"/>
<path d="M101.639 40.9523V1.50831C101.64 0.985332 102.063 0.561475 102.586 0.561062H106.662C107.062 0.561167 107.418 0.811966 107.554 1.18806L116.27 25.4686H116.386V1.50831C116.386 0.98516 116.811 0.561062 117.334 0.561062H121.361C121.884 0.561475 122.308 0.985332 122.308 1.50831V40.9523C122.308 41.4755 121.884 41.8996 121.361 41.8996H117.398C117 41.8997 116.644 41.651 116.508 41.2771L107.678 17.0521H107.562V40.9546C107.562 41.4777 107.138 41.9018 106.615 41.9018H102.587C102.335 41.902 102.094 41.802 101.916 41.6238C101.738 41.4457 101.639 41.2041 101.639 40.9523Z" fill="white"/>
<path d="M168.253 1.64781L162.381 41.0918C162.312 41.5559 161.914 41.8995 161.444 41.8996H157.488C157.026 41.8994 156.631 41.5656 156.554 41.1098L152.159 15.0766H152.043L147.703 41.1076C147.627 41.5644 147.231 41.8992 146.768 41.8988H142.814C142.344 41.899 141.946 41.5553 141.877 41.0911L136.004 1.64706C135.964 1.37452 136.044 1.09782 136.224 0.889105C136.404 0.680393 136.665 0.560363 136.941 0.560313H141.266C141.748 0.560353 142.154 0.922626 142.208 1.40181L145.073 26.8036H145.19L149.696 1.34256C149.777 0.890166 150.17 0.560505 150.629 0.560313H153.571C154.029 0.56037 154.422 0.888926 154.503 1.34031L159.182 27.4403H159.298L162.053 1.40631C162.104 0.924463 162.511 0.558804 162.995 0.558813H167.315C167.591 0.558327 167.854 0.678472 168.034 0.887769C168.214 1.09707 168.294 1.37466 168.253 1.64781Z" fill="white"/>
<path fill-rule="evenodd" clip-rule="evenodd" d="M171.956 5.90256C171.352 7.29375 171.055 8.7986 171.085 10.3148V32.1458C171.043 33.6819 171.341 35.2083 171.956 36.6166C172.495 37.7998 173.289 38.8497 174.281 39.6916C175.196 40.5357 176.272 41.1871 177.445 41.6071C178.589 42.0267 179.797 42.2429 181.016 42.2461C182.234 42.2428 183.442 42.0265 184.586 41.6071C185.773 41.179 186.868 40.5289 187.811 39.6916C188.772 38.8357 189.544 37.7883 190.076 36.6166C190.69 35.2082 190.987 33.6818 190.946 32.1458V10.3148C190.975 8.79868 190.679 7.29386 190.076 5.90256C189.545 4.69573 188.774 3.60927 187.811 2.70906C186.855 1.90343 185.763 1.27438 184.586 0.851311C183.442 0.431801 182.234 0.215544 181.016 0.212311C179.797 0.215421 178.589 0.431681 177.445 0.851311C176.283 1.26625 175.209 1.8965 174.281 2.70906C173.286 3.59532 172.494 4.68425 171.956 5.90256ZM178.2 35.3093C177.347 34.4878 176.91 33.3257 177.01 32.1458V10.3148C176.911 9.13498 177.348 7.97317 178.2 7.15131C178.982 6.4781 179.985 6.11635 181.016 6.13506C182.048 6.11654 183.05 6.47828 183.832 7.15131C184.684 7.97309 185.122 9.13487 185.023 10.3148V32.1458C185.122 33.3258 184.685 34.4878 183.832 35.3093C183.05 35.9823 182.048 36.3441 181.016 36.3256C179.984 36.3448 178.982 35.983 178.2 35.3093Z" fill="white"/>
<path d="M195.51 40.9523V1.50831C195.51 0.985332 195.934 0.561475 196.457 0.561062H200.485C201.008 0.561062 201.432 0.98516 201.432 1.50831V19.4333H201.548L209.948 1.11606C210.103 0.779456 210.439 0.563575 210.809 0.563312H214.607C214.934 0.563056 215.238 0.731287 215.411 1.0084C215.584 1.28551 215.603 1.63236 215.459 1.92606L208.235 16.7393C208.119 16.9761 208.107 17.2503 208.202 17.4961L217.136 40.6126C217.248 40.9039 217.21 41.2319 217.033 41.4895C216.857 41.747 216.564 41.901 216.252 41.9011H212.024C211.627 41.9011 211.272 41.6532 211.135 41.2801L205.36 25.5398C205.231 25.1892 204.909 24.9468 204.536 24.9209C204.164 24.895 203.811 25.0904 203.635 25.4198L201.55 29.3251C201.476 29.4635 201.437 29.6181 201.438 29.7751V40.9576C201.438 41.4807 201.014 41.9048 200.491 41.9048H196.463C196.21 41.9064 195.967 41.8066 195.788 41.6277C195.609 41.4487 195.509 41.2055 195.51 40.9523Z" fill="white"/>
<path fill-rule="evenodd" clip-rule="evenodd" d="M0 1.50831V40.9523C0.000413586 41.4749 0.423934 41.8984 0.9465 41.8988H4.974C5.49715 41.8988 5.92125 41.4747 5.92125 40.9516V25.1956C5.92125 24.6724 6.34535 24.2483 6.8685 24.2483H8.766C9.1806 24.2482 9.54707 24.5178 9.6705 24.9136L14.7705 41.2343C14.8942 41.6298 15.2606 41.899 15.675 41.8988H19.9275C20.2333 41.8997 20.5206 41.753 20.6992 41.5048C20.8778 41.2566 20.9255 40.9374 20.8275 40.6478L15.1095 23.7548C14.9687 23.3479 15.1234 22.8974 15.4845 22.6628C16.956 21.778 18.1257 20.469 18.84 18.9076C19.6456 16.9384 20.0313 14.8228 19.9725 12.6961C19.972 4.60606 16.4883 0.561062 9.52125 0.561062H0.94725C0.42427 0.561475 0.000413587 0.985332 0 1.50831ZM5.925 18.0773V7.08306H5.922C5.922 6.83138 6.02208 6.59002 6.20019 6.41219C6.3783 6.23437 6.61981 6.13466 6.8715 6.13506H9.0015C11.0525 6.13606 12.446 6.67806 13.182 7.76106C13.5489 8.39492 13.7858 9.09558 13.8787 9.82206C14.0029 10.7362 14.061 11.6581 14.0527 12.5806C14.061 13.5028 14.0029 14.4244 13.8787 15.3383C13.7925 16.0397 13.5761 16.7189 13.2405 17.3408C12.8864 17.8878 12.3823 18.3213 11.7885 18.5896C10.9973 18.9117 10.1461 19.06 9.2925 19.0246H6.87225C6.3491 19.0246 5.925 18.6005 5.925 18.0773Z" fill="white"/>
<path fill-rule="evenodd" clip-rule="evenodd" d="M24.6007 5.90256C23.9971 7.29374 23.7001 8.7986 23.73 10.3148V32.1458C23.6886 33.6819 23.9859 35.2083 24.6007 36.6166C25.1406 37.7998 25.9344 38.8497 26.9258 39.6916C27.8414 40.5357 28.9175 41.1871 30.09 41.6071C31.2336 42.0266 32.4418 42.2428 33.66 42.2461C34.8784 42.2428 36.0868 42.0265 37.2308 41.6071C38.4176 41.1791 39.5121 40.529 40.4557 39.6916C41.417 38.8358 42.1885 37.7883 42.7208 36.6166C43.3352 35.2082 43.6322 33.6818 43.5907 32.1458V10.3148C43.6207 8.79867 43.324 7.29385 42.7208 5.90256C42.1899 4.69562 41.4193 3.60913 40.4557 2.70906C39.4995 1.90333 38.4075 1.27427 37.2308 0.851311C36.0868 0.431846 34.8784 0.21559 33.66 0.212311C32.4418 0.215508 31.2336 0.431767 30.09 0.851311C28.9279 1.26618 27.8544 1.89644 26.9258 2.70906C25.9316 3.59532 25.1388 4.68425 24.6007 5.90256ZM30.8453 35.3093C29.9925 34.4878 29.5553 33.3257 29.655 32.1458V10.3148C29.5557 9.13496 29.9929 7.97311 30.8453 7.15131C31.6271 6.47828 32.6293 6.11654 33.6607 6.13506C34.6925 6.11635 35.695 6.4781 36.477 7.15131C37.3295 7.97309 37.7669 9.13487 37.668 10.3148V32.1458C37.7673 33.3258 37.3298 34.4878 36.477 35.3093C35.695 35.9825 34.6925 36.3443 33.6607 36.3256C32.6292 36.3446 31.6268 35.9828 30.8453 35.3093Z" fill="white"/>
<path d="M72.4403 40.9523V1.50831C72.4407 0.985332 72.8645 0.561475 73.3875 0.561062H77.415C77.9382 0.561062 78.3623 0.98516 78.3623 1.50831V19.4333H78.4785L86.8785 1.11606C87.0329 0.779456 87.3692 0.563575 87.7395 0.563312H91.5375C91.8642 0.563315 92.1678 0.73165 92.3409 1.00872C92.514 1.28579 92.5321 1.63248 92.3888 1.92606L85.164 16.7393C85.0487 16.9761 85.037 17.2503 85.1318 17.4961L94.065 40.6126C94.1776 40.904 94.1392 41.2322 93.9624 41.4898C93.7856 41.7474 93.4932 41.9013 93.1808 41.9011H88.953C88.5556 41.9011 88.2004 41.6532 88.0635 41.2801L82.2885 25.5398C82.16 25.1892 81.8374 24.9468 81.4649 24.9209C81.0924 24.895 80.7394 25.0904 80.5635 25.4198L78.4785 29.3251C78.4046 29.4635 78.3663 29.6181 78.3668 29.7751V40.9576C78.3668 41.2088 78.267 41.4497 78.0893 41.6274C77.9117 41.805 77.6707 41.9048 77.4195 41.9048H73.392C73.1391 41.906 72.8962 41.806 72.7174 41.6271C72.5387 41.4482 72.4389 41.2052 72.4403 40.9523Z" fill="white"/>
<path d="M62.0475 32.1458C62.1469 33.3258 61.7094 34.4878 60.8565 35.3093C60.0746 35.9823 59.0724 36.3441 58.041 36.3256C57.0094 36.3446 56.0071 35.9828 55.2255 35.3093C54.3727 34.4878 53.9354 33.3257 54.0352 32.1458V10.3148C53.9359 9.13495 54.373 7.97305 55.2255 7.15131C56.0073 6.47828 57.0095 6.11654 58.041 6.13506C59.0724 6.11654 60.0746 6.47828 60.8565 7.15131C61.709 7.97303 62.1465 9.13486 62.0475 10.3148V14.1121C62.0479 14.7124 62.5347 15.1988 63.135 15.1988H66.885C67.4853 15.1988 67.9721 14.7124 67.9725 14.1121V10.3148C68.0023 8.79861 67.7054 7.29375 67.1017 5.90256C66.5712 4.69563 65.8008 3.60913 64.8375 2.70906C63.8812 1.9034 62.7892 1.27434 61.6125 0.851311C60.4686 0.431846 59.2601 0.21559 58.0417 0.212311C56.8236 0.215462 55.6154 0.431723 54.4717 0.851311C53.3096 1.26627 52.2362 1.89651 51.3075 2.70906C50.3134 3.59535 49.5206 4.68427 48.9825 5.90256C48.3791 7.29381 48.0821 8.79862 48.1117 10.3148V32.1458C48.0705 33.6819 48.3678 35.2082 48.9825 36.6166C49.5224 37.7998 50.3162 38.8496 51.3075 39.6916C52.2233 40.5355 53.2994 41.1869 54.4717 41.6071C55.6154 42.0265 56.8236 42.2427 58.0417 42.2461C59.2601 42.2426 60.4685 42.0263 61.6125 41.6071C62.7992 41.1788 63.8937 40.5288 64.8375 39.6916C65.7985 38.8357 66.5697 37.7883 67.1017 36.6166C67.7166 35.2083 68.0139 33.6819 67.9725 32.1458V28.3486C67.9725 27.748 67.4856 27.2611 66.885 27.2611H63.135C62.5344 27.2611 62.0475 27.748 62.0475 28.3486V32.1458Z" fill="white"/>
<path d="M121.361 46.5578H102.586C102.063 46.5578 101.639 46.9819 101.639 47.5051V51.5326C101.64 52.0555 102.063 52.4794 102.586 52.4798H121.361C121.884 52.4794 122.308 52.0555 122.308 51.5326V47.5051C122.308 46.9819 121.884 46.5578 121.361 46.5578Z" fill="#FECD2F"/>
</svg>
